<?xml version="1.0" encoding="utf-8"?>
<!-- Generator: Adobe Illustrator 27.5.0, SVG Export Plug-In . SVG Version: 6.00 Build 0)  -->
<svg version="1.1" id="Capa_1" xmlns="http://www.w3.org/2000/svg" xmlns:xlink="http://www.w3.org/1999/xlink" x="0px" y="0px"
	 viewBox="0 0 2263 1989" style="enable-background:new 0 0 2263 1989;" xml:space="preserve">
<g>
	<g>
		<g>
			<rect style="fill:#FFFFFF;" width="2262.695" height="1988.785"/>
			<path style="fill:#215184;" d="M1984.102,1560.992c39.223-101.855,60.781-212.484,60.781-328.16
				c0-504.527-409-913.527-913.527-913.527s-913.535,409-913.535,913.527c0,115.676,21.559,226.305,60.781,328.16H1984.102z"/>
			<g>
				<path style="fill:#FFFFFF;" d="M700.387,530.383c0,4.898-3.98,8.871-8.879,8.871c-4.895,0-8.863-3.973-8.863-8.871
					c0-4.898,3.969-8.871,8.863-8.871C696.406,521.512,700.387,525.484,700.387,530.383z"/>
				<path style="fill:#FFFFFF;" d="M888.406,675.836c0,4.898-3.973,8.871-8.867,8.871c-4.898,0-8.871-3.973-8.871-8.871
					c0-4.898,3.973-8.871,8.871-8.871C884.434,666.965,888.406,670.938,888.406,675.836z"/>
				<path style="fill:#FFFFFF;" d="M1243.621,469.629c0,4.898-3.973,8.867-8.867,8.867c-4.902,0-8.879-3.969-8.879-8.867
					c0-4.902,3.977-8.871,8.879-8.871C1239.648,460.758,1243.621,464.727,1243.621,469.629z"/>
				<path style="fill:#FFFFFF;" d="M1477.77,548.125c0,4.894-3.977,8.867-8.871,8.867c-4.898,0-8.875-3.973-8.875-8.867
					c0-4.902,3.977-8.871,8.875-8.871C1473.793,539.254,1477.77,543.223,1477.77,548.125z"/>
				<path style="fill:#FFFFFF;" d="M1375.324,410.207c0,4.895-3.969,8.867-8.863,8.867c-4.902,0-8.871-3.973-8.871-8.867
					c0-4.902,3.969-8.871,8.871-8.871C1371.355,401.336,1375.324,405.305,1375.324,410.207z"/>
				<path style="fill:#FFFFFF;" d="M958.922,530.383c0,4.898-3.977,8.871-8.871,8.871c-4.902,0-8.875-3.973-8.875-8.871
					c0-4.898,3.973-8.871,8.875-8.871C954.945,521.512,958.922,525.484,958.922,530.383z"/>
				<path style="fill:#FFFFFF;" d="M1072,383.152c0,4.898-3.973,8.871-8.867,8.871c-4.902,0-8.871-3.973-8.871-8.871
					c0-4.898,3.969-8.871,8.871-8.871C1068.027,374.281,1072,378.254,1072,383.152z"/>
				<path style="fill:#FFFFFF;" d="M595.723,592.023c0,4.898-3.973,8.867-8.867,8.867c-4.898,0-8.871-3.969-8.871-8.867
					c0-4.902,3.973-8.871,8.871-8.871C591.75,583.152,595.723,587.121,595.723,592.023z"/>
				<path style="fill:#FFFFFF;" d="M559.809,746.348c0,4.898-3.977,8.867-8.871,8.867c-4.902,0-8.879-3.969-8.879-8.867
					c0-4.902,3.977-8.871,8.879-8.871C555.832,737.477,559.809,741.445,559.809,746.348z"/>
				<path style="fill:#FFFFFF;" d="M727.434,843.465c0,4.898-3.973,8.867-8.871,8.867c-4.898,0-8.875-3.969-8.875-8.867
					c0-4.898,3.977-8.871,8.875-8.871C723.461,834.594,727.434,838.566,727.434,843.465z"/>
				<path style="fill:#FFFFFF;" d="M1115.906,721.07c0,4.898-3.977,8.867-8.871,8.867c-4.902,0-8.875-3.969-8.875-8.867
					c0-4.902,3.973-8.871,8.875-8.871C1111.93,712.199,1115.906,716.168,1115.906,721.07z"/>
				<path style="fill:#FFFFFF;" d="M1098.16,609.762c0,4.898-3.973,8.871-8.867,8.871c-4.898,0-8.871-3.973-8.871-8.871
					c0-4.898,3.973-8.871,8.871-8.871C1094.188,600.891,1098.16,604.863,1098.16,609.762z"/>
				<path style="fill:#FFFFFF;" d="M1270.23,539.254c0,4.898-3.977,8.867-8.871,8.867c-4.898,0-8.875-3.969-8.875-8.867
					c0-4.902,3.977-8.871,8.875-8.871C1266.254,530.383,1270.23,534.352,1270.23,539.254z"/>
				<path style="fill:#FFFFFF;" d="M1660.027,592.023c0,4.898-3.969,8.867-8.867,8.867s-8.871-3.969-8.871-8.867
					c0-4.902,3.973-8.871,8.871-8.871S1660.027,587.121,1660.027,592.023z"/>
				<path style="fill:#FFFFFF;" d="M1350.055,712.199c0,4.898-3.977,8.867-8.871,8.867c-4.902,0-8.879-3.969-8.879-8.867
					c0-4.898,3.977-8.871,8.879-8.871C1346.078,703.328,1350.055,707.301,1350.055,712.199z"/>
				<path style="fill:#FFFFFF;" d="M1509.699,737.477c0,4.898-3.977,8.867-8.871,8.867c-4.902,0-8.875-3.969-8.875-8.867
					c0-4.902,3.973-8.871,8.875-8.871C1505.723,728.606,1509.699,732.574,1509.699,737.477z"/>
				<path style="fill:#FFFFFF;" d="M1777.102,737.477c0,4.898-3.973,8.867-8.867,8.867c-4.898,0-8.871-3.969-8.871-8.867
					c0-4.902,3.973-8.871,8.871-8.871C1773.129,728.606,1777.102,732.574,1777.102,737.477z"/>
				<path style="fill:#FFFFFF;" d="M1668.902,852.336c0,4.898-3.98,8.867-8.875,8.867s-8.867-3.969-8.867-8.867
					c0-4.898,3.973-8.871,8.867-8.871S1668.902,847.438,1668.902,852.336z"/>
				<path style="fill:#FFFFFF;" d="M1895.512,985.523c0,4.899-3.977,8.871-8.871,8.871c-4.902,0-8.879-3.973-8.879-8.871
					c0-4.898,3.977-8.867,8.879-8.867C1891.535,976.656,1895.512,980.625,1895.512,985.523z"/>
				<path style="fill:#FFFFFF;" d="M1707.922,1086.484c0,4.898-3.973,8.871-8.867,8.871c-4.898,0-8.871-3.973-8.871-8.871
					c0-4.902,3.973-8.871,8.871-8.871C1703.949,1077.613,1707.922,1081.582,1707.922,1086.484z"/>
				<path style="fill:#FFFFFF;" d="M1509.699,922.848c0,4.898-3.977,8.867-8.871,8.867c-4.902,0-8.875-3.969-8.875-8.867
					c0-4.902,3.973-8.871,8.875-8.871C1505.723,913.977,1509.699,917.945,1509.699,922.848z"/>
				<path style="fill:#FFFFFF;" d="M1617.453,994.395c0,4.898-3.969,8.871-8.863,8.871c-4.902,0-8.871-3.973-8.871-8.871
					c0-4.898,3.969-8.871,8.871-8.871C1613.484,985.523,1617.453,989.496,1617.453,994.395z"/>
				<path style="fill:#FFFFFF;" d="M1296.84,1061.648c0,4.898-3.977,8.871-8.871,8.871c-4.902,0-8.879-3.973-8.879-8.871
					c0-4.902,3.977-8.871,8.879-8.871C1292.863,1052.777,1296.84,1056.746,1296.84,1061.648z"/>
				<path style="fill:#FFFFFF;" d="M1366.461,881.606c0,4.898-3.98,8.867-8.871,8.867c-4.902,0-8.871-3.969-8.871-8.867
					c0-4.902,3.969-8.871,8.871-8.871C1362.48,872.734,1366.461,876.703,1366.461,881.606z"/>
				<path style="fill:#FFFFFF;" d="M1170.445,922.848c0,4.898-3.969,8.867-8.863,8.867c-4.902,0-8.871-3.969-8.871-8.867
					c0-4.902,3.969-8.871,8.871-8.871C1166.477,913.977,1170.445,917.945,1170.445,922.848z"/>
				<path style="fill:#FFFFFF;" d="M1460.023,1095.355c0,4.898-3.973,8.871-8.867,8.871c-4.898,0-8.871-3.973-8.871-8.871
					c0-4.902,3.973-8.871,8.871-8.871C1456.051,1086.484,1460.023,1090.453,1460.023,1095.355z"/>
				<path style="fill:#FFFFFF;" d="M1895.512,830.16c0,4.898-3.977,8.871-8.871,8.871c-4.902,0-8.879-3.973-8.879-8.871
					c0-4.898,3.977-8.871,8.879-8.871C1891.535,821.289,1895.512,825.262,1895.512,830.16z"/>
				<path style="fill:#FFFFFF;" d="M409.469,830.16c0,4.898-3.969,8.871-8.867,8.871c-4.898,0-8.871-3.973-8.871-8.871
					c0-4.898,3.973-8.871,8.871-8.871C405.5,821.289,409.469,825.262,409.469,830.16z"/>
				<path style="fill:#FFFFFF;" d="M527.879,1003.266c0,4.902-3.977,8.871-8.871,8.871c-4.902,0-8.879-3.969-8.879-8.871
					c0-4.898,3.977-8.871,8.879-8.871C523.902,994.395,527.879,998.367,527.879,1003.266z"/>
				<path style="fill:#FFFFFF;" d="M299.051,1113.098c0,4.894-3.973,8.863-8.871,8.863s-8.875-3.969-8.875-8.863
					c0-4.902,3.977-8.871,8.875-8.871S299.051,1108.195,299.051,1113.098z"/>
				<path style="fill:#FFFFFF;" d="M418.344,1281.168c0,4.895-3.98,8.863-8.875,8.863c-4.895,0-8.867-3.969-8.867-8.863
					c0-4.902,3.973-8.871,8.867-8.871C414.363,1272.297,418.344,1276.266,418.344,1281.168z"/>
				<path style="fill:#FFFFFF;" d="M718.563,1130.832c0,4.902-3.981,8.871-8.875,8.871c-4.898,0-8.867-3.969-8.867-8.871
					c0-4.898,3.969-8.871,8.867-8.871C714.582,1121.961,718.563,1125.934,718.563,1130.832z"/>
				<path style="fill:#FFFFFF;" d="M856.477,976.656c0,4.898-3.969,8.867-8.867,8.867c-4.898,0-8.871-3.969-8.871-8.867
					c0-4.898,3.973-8.871,8.871-8.871C852.508,967.785,856.477,971.758,856.477,976.656z"/>
				<path style="fill:#FFFFFF;" d="M1040.07,1095.355c0,4.898-3.973,8.871-8.867,8.871c-4.898,0-8.871-3.973-8.871-8.871
					c0-4.902,3.973-8.871,8.871-8.871C1036.098,1086.484,1040.07,1090.453,1040.07,1095.355z"/>
				<circle style="fill:#FFFFFF;" cx="870.668" cy="1237.258" r="8.871"/>
				<path style="fill:#FFFFFF;" d="M646.277,1314.422c0,4.898-3.973,8.871-8.867,8.871c-4.898,0-8.871-3.973-8.871-8.871
					c0-4.902,3.973-8.871,8.871-8.871C642.305,1305.551,646.277,1309.52,646.277,1314.422z"/>
				<path style="fill:#FFFFFF;" d="M1970.012,1158.77c0,4.898-3.977,8.867-8.871,8.867c-4.902,0-8.875-3.969-8.875-8.867
					s3.973-8.871,8.875-8.871C1966.035,1149.898,1970.012,1153.871,1970.012,1158.77z"/>
				<path style="fill:#FFFFFF;" d="M1858.258,1270.523c0,4.895-3.973,8.867-8.871,8.867s-8.875-3.973-8.875-8.867
					c0-4.902,3.977-8.871,8.875-8.871S1858.258,1265.621,1858.258,1270.523z"/>
			</g>
			<polygon style="fill:#00233C;" points="1887.777,1154.672 1887.777,1102.168 1874.25,1102.168 1874.25,1046 1866.965,1046 
				1866.965,1008.551 1798.324,1008.551 1798.324,1046 1791.039,1046 1791.039,1102.168 1779.605,1102.168 1779.605,1198.902 
				1743.203,1198.902 1743.203,1031.434 1658.941,1031.434 1658.941,919.102 1611.094,919.102 1611.094,889.977 1580.934,889.977 
				1580.934,852.531 1502.918,852.531 1502.918,1185.379 1429.07,1185.379 1429.07,1077.203 1415.547,1077.203 1415.547,1016.879 
				1280.34,1016.879 1280.34,1077.203 1270.98,1077.203 1270.98,1220.742 1238.727,1220.742 1238.727,1130.25 1174.242,1130.25 
				1174.242,1004.645 1163.84,1004.645 1163.84,975.269 1069.188,975.269 1069.188,1004.645 1060.863,1004.645 1060.863,1165.609 
				1029.656,1165.609 1029.656,1099.051 1022.379,1099.051 1022.379,1077.203 955.809,1077.203 955.809,1099.051 947.484,1099.051 
				947.484,1220.742 915.242,1220.742 915.242,1137.531 859.066,1137.531 859.066,1050.164 755.059,1004.645 755.059,1225.426 
				709.289,1225.426 709.289,1165.609 641.684,1165.609 641.684,1077.203 627.121,1077.203 627.121,1050.164 547.027,1050.164 
				547.027,1077.203 539.746,1077.203 539.746,1229.063 499.188,1229.063 499.188,1195.777 475.996,1195.777 475.996,987.246 
				463.672,987.246 463.672,958.625 452.59,958.625 452.59,933.664 422.43,933.664 422.43,782.902 417.234,782.902 417.234,933.664 
				387.07,933.664 387.07,958.625 376,958.625 376,987.246 363.664,987.246 363.664,1195.777 340.039,1195.777 340.039,1496.5 
				1965.383,1496.5 1965.383,1187.395 			"/>
			<g>
				<path style="fill:#C7E7E4;" d="M897.031,1483.883c0,15.789-84.32,28.59-188.355,28.59c-104.016,0-188.34-12.801-188.34-28.59
					l44.055-80.016h288.59L897.031,1483.883z"/>
				<path style="fill:#578582;" d="M852.98,1403.867c0,12.09-64.602,21.895-144.305,21.895c-79.684,0-144.285-9.805-144.285-21.895
					c0-12.102,64.602-21.902,144.285-21.902C788.379,1381.965,852.98,1391.766,852.98,1403.867z"/>
				<g>
					<path style="fill:#3F6461;" d="M766.457,1086.961l-78.195-78.191l-122.324,122.328l0.102,0.105
						c-0.188,0.113-0.395,0.191-0.551,0.344c-4.637,4.633,9.102,25.898,30.691,47.492c21.594,21.594,42.863,35.336,47.496,30.691
						c0.156-0.145,0.231-0.363,0.344-0.551l0.102,0.109L766.457,1086.961z"/>
					<g>
						<polygon style="fill:#7AC2BC;" points="744.32,1401.141 673.051,1401.141 688.598,1123.957 728.769,1123.957 						"/>
						<polygon style="fill:#C7E7E4;" points="708.676,1401.141 744.32,1401.141 728.769,1123.957 708.676,1123.957 						"/>
					</g>
					<path style="fill:#557977;" d="M802.195,1031.926c11.356,43.883-15.023,88.664-58.906,100.016
						c-43.871,11.344-88.652-15.023-99.996-58.906c-11.359-43.883,15.008-88.656,58.894-100.004
						C746.066,961.676,790.84,988.047,802.195,1031.926z"/>
					<g>
						<path style="fill:#C7E7E4;" d="M1059.297,1157.16L830.644,932.394L614.441,695.633c0,0-154.563,98.586,91.805,356.668
							C955.09,1307.992,1059.297,1157.16,1059.297,1157.16z"/>
						<path style="fill:#A0C7C4;" d="M730.172,1030.211c-179.477-188.008-146.18-291.359-114.867-333.625l-0.863-0.953
							c0,0-154.563,98.586,91.805,356.668c242.176,248.832,347.344,112.676,352.816,105.188
							C1015.488,1187.152,911.031,1216.047,730.172,1030.211z"/>
						<path style="fill:#729A98;" d="M1059.285,1157.156c-15.52,14.953-81.734-26.984-164.023-100.117
							c-2.926-2.621-5.879-5.234-8.867-7.957c-28.113-25.375-57.918-54.191-88.09-85.5c-32.004-33.226-61.266-65.934-86.641-96.492
							c-2.484-2.953-4.898-5.91-7.289-8.809c-67.504-82.598-105.145-147.988-89.926-162.656
							c17.754-17.133,102.137,40.453,201.012,134.094c2.934,2.777,5.887,5.598,8.836,8.449
							c16.777,16.094,33.902,33.176,51.137,51.059c12.961,13.453,25.477,26.824,37.449,39.984c2.879,3.168,5.727,6.328,8.555,9.461
							C1018.055,1046.359,1077.797,1139.324,1059.285,1157.156z"/>
					</g>
				</g>
				<path style="fill:#FFFFFF;" d="M974.984,801.418c0,15.742-12.762,28.508-28.512,28.508c-15.742,0-28.508-12.766-28.508-28.508
					c0-15.746,12.766-28.508,28.508-28.508C962.223,772.91,974.984,785.672,974.984,801.418z"/>
				<g>
					<path style="fill:#FFFFFF;" d="M953.371,794.289l-31.934,144.383l-26.176,118.367c-2.926-2.621-5.879-5.234-8.867-7.957
						l26.488-119.871l26.691-120.668l-115.277,29.625L711.664,867.09c-2.484-2.953-4.898-5.91-7.289-8.809l111.086-28.563
						L953.371,794.289z"/>
				</g>
			</g>
			<path style="fill:#489343;" d="M2044.883,1232.832c0-29.516-1.457-58.688-4.191-87.488c-21.637,31.746-20.629,77.02-20.629,77.02
				c-102.148-19.723-98.965,73.992-98.965,73.992c-127.688-47.883-102.152,76.617-102.152,76.617
				c-153.234-57.461-201.105,83.004-201.105,83.004c-22.348-114.922-143.656-61.355-143.656-61.355
				c3.195-98.066-95.766-55.449-95.766-55.449c-15.961-177.461-211.496-68.348-211.496-68.348
				c-150.832-70.234-191.77,68.348-191.77,68.348c-125.531-40.195-120.277,72.113-120.277,72.113
				c-140.457-63.848-197.918,44.691-197.918,44.691c-41.504-118.113-130.887-47.883-130.887-47.883
				c-28.731-84.598-89.383-54.27-89.383-54.27c3.191-83-89.379-57.461-89.379-57.461c-29.746-85.25-88.902-80.613-129.473-64.863
				c0,0.449-0.016,0.883-0.016,1.332c0,115.676,21.559,226.305,60.781,328.16h56.813l1661.824-36.477
				C2028.098,1432.914,2044.883,1334.844,2044.883,1232.832z"/>
			<path style="fill:#636F71;" d="M2087.453,1556.621c0,29.848-28.586,54.039-63.859,54.039H239.105
				c-35.262,0-63.855-24.191-63.855-54.039v-9c0-29.844,28.594-54.035,63.855-54.035h1784.488c35.273,0,63.859,24.191,63.859,54.035
				V1556.621z"/>
			<path style="opacity:0.6;fill:#344041;" d="M175.297,1557.445c0.52,29.461,28.867,53.215,63.809,53.215h1784.488
				c34.945,0,63.289-23.754,63.813-53.215H175.297z"/>
		</g>
	</g>
</g>
<g>
	<g>
		<polygon style="fill:#878A94;" points="1508.477,556.5 1601.676,704.875 1608.109,700.856 1514.879,552.465 		"/>
		<polygon style="fill:#878A94;" points="1419.176,612.598 1512.387,760.981 1518.805,756.949 1425.582,608.57 		"/>
		<g>
			
				<rect x="1493.519" y="628.309" transform="matrix(0.8468 -0.5319 0.5319 0.8468 -121.6318 901.3764)" style="fill:#050B1F;" width="20.906" height="67.064"/>
			<polygon style="fill:#A1A4BE;" points="1340.605,760.004 1344.633,766.41 1375.316,747.137 1371.289,740.719 			"/>
			<polygon style="fill:#232839;" points="1366.25,743.891 1370.273,750.293 1404.613,728.723 1400.594,722.309 			"/>
			<polygon style="fill:#C9CBDD;" points="1380.398,681.023 1452.77,635.57 1477.141,638.777 1514.246,697.856 1505.422,719.375 
				1433.051,764.828 			"/>
			
				<rect x="1403.867" y="663.517" transform="matrix(0.8468 -0.5319 0.5319 0.8468 -161.3237 865.8819)" style="fill:#A1A4BE;" width="37.317" height="98.97"/>
			
				<rect x="1405.587" y="669.485" transform="matrix(0.8471 -0.5315 0.5315 0.8471 -166.0293 860.9116)" style="fill:#8285A4;" width="14.879" height="98.973"/>
			<polygon style="fill:#F7F8FC;" points="1477.141,638.777 1514.246,697.856 1505.422,719.375 1452.77,635.57 			"/>
			<polygon style="fill:#64688B;" points="1371.844,697.894 1414.141,765.219 1433.051,764.828 1380.398,681.023 			"/>
			
				<rect x="1521.014" y="578.887" transform="matrix(0.8468 -0.532 0.532 0.8468 -95.6474 924.6987)" style="fill:#C9CBDD;" width="72.471" height="98.971"/>
			
				<rect x="1523.706" y="588.236" transform="matrix(0.8467 -0.532 0.532 0.8467 -102.8766 918.3663)" style="fill:#A1A4BE;" width="37.308" height="98.972"/>
			
				<rect x="1525.427" y="594.205" transform="matrix(0.8469 -0.5318 0.5318 0.8469 -107.5981 913.6851)" style="fill:#8285A4;" width="14.873" height="98.974"/>
			<polygon style="fill:#64688B;" points="1491.672,622.617 1533.98,689.941 1552.891,689.551 1500.242,605.746 			"/>
			<polygon style="fill:#232839;" points="1364.527,702.496 1406.809,769.82 1414.141,765.219 1371.844,697.894 			"/>
			<path style="fill:#C9CBDD;" d="M1312.445,688.996c22.617,0.051,50.492,18.863,69.668,49.395
				c19.18,30.531,24.02,63.801,14.266,84.207L1312.445,688.996z"/>
			<path style="fill:#A1A4BE;" d="M1380.895,736.5c0.402,0.625,0.813,1.254,1.219,1.891c19.18,30.531,24.02,63.801,14.266,84.207
				l-28.504-45.367C1378.891,767.191,1381.828,752.082,1380.895,736.5z"/>
			<path style="fill:#C9CBDD;" d="M1336.301,758.231c-3.547,2.23-4.609,6.894-2.395,10.438c2.23,3.539,6.906,4.613,10.445,2.379
				c3.535-2.219,4.609-6.895,2.375-10.434C1344.508,757.074,1339.84,756.008,1336.301,758.231z"/>
			<path style="fill:#232839;" d="M1476.902,625.195c-0.508,0.313-0.656,0.98-0.332,1.488l47.176,75.109
				c0.316,0.508,0.977,0.652,1.488,0.34l5.496-3.457c0.508-0.316,0.664-0.984,0.344-1.492l-47.188-75.105
				c-0.316-0.504-0.977-0.656-1.484-0.336L1476.902,625.195z"/>
			<polygon style="fill:#A1A4BE;" points="1566.734,575.356 1609.121,642.836 1623.266,626.707 1587.398,569.613 			"/>
			
				<rect x="1604.459" y="565.531" transform="matrix(0.8468 -0.5319 0.5319 0.8468 -69.8427 947.7087)" style="fill:#7E819D;" width="11.53" height="59.13"/>
		</g>
		<g>
			<polygon style="fill:#FFFFFF;" points="1216.117,320.535 1412.047,632.414 1535.074,555.121 1339.156,243.242 			"/>
			<polygon style="fill:#5E8BC8;" points="1226.852,325.293 1412.422,620.68 1524.34,550.367 1338.781,254.973 			"/>
			
				<rect x="1305.199" y="433.926" transform="matrix(0.8468 -0.5319 0.5319 0.8468 -22.5622 797.6323)" style="fill:#FFFFFF;" width="136.225" height="8.112"/>
			
				<rect x="1390.49" y="565.12" transform="matrix(0.8467 -0.5321 0.5321 0.8467 -78.2595 861.8601)" style="fill:#FFFFFF;" width="132.183" height="3.25"/>
			
				<rect x="1378.981" y="546.807" transform="matrix(0.8471 -0.5314 0.5314 0.8471 -70.5078 851.782)" style="fill:#FFFFFF;" width="132.184" height="3.241"/>
			<polygon style="fill:#FFFFFF;" points="1376.738,563.894 1378.453,566.641 1490.387,496.32 1488.672,493.574 			"/>
			<polygon style="fill:#FFFFFF;" points="1365.234,545.574 1366.949,548.324 1478.887,478.004 1477.16,475.258 			"/>
			
				<rect x="1344.459" y="491.848" transform="matrix(0.846 -0.5331 0.5331 0.846 -45.912 827.9622)" style="fill:#FFFFFF;" width="132.186" height="3.246"/>
			<polygon style="fill:#FFFFFF;" points="1342.199,508.934 1343.938,511.68 1455.871,441.367 1454.145,438.617 			"/>
			<polygon style="fill:#FFFFFF;" points="1330.707,490.621 1332.43,493.363 1444.371,423.051 1442.633,420.301 			"/>
			
				<rect x="1298.43" y="418.574" transform="matrix(0.8475 -0.5309 0.5309 0.8475 -14.9144 788.4923)" style="fill:#FFFFFF;" width="132.192" height="3.246"/>
			
				<rect x="1286.917" y="400.253" transform="matrix(0.8475 -0.5309 0.5309 0.8475 -6.9553 779.5482)" style="fill:#FFFFFF;" width="132.187" height="3.247"/>
			
				<rect x="1275.412" y="381.936" transform="matrix(0.8464 -0.5326 0.5326 0.8464 1.8038 773.3726)" style="fill:#FFFFFF;" width="132.184" height="3.247"/>
			
				<rect x="1263.902" y="363.619" transform="matrix(0.8475 -0.5309 0.5309 0.8475 8.982 761.7415)" style="fill:#FFFFFF;" width="132.181" height="3.244"/>
			
				<rect x="1252.397" y="345.3" transform="matrix(0.8466 -0.5323 0.5323 0.8466 17.6264 754.9978)" style="fill:#FFFFFF;" width="132.188" height="3.246"/>
			
				<rect x="1240.883" y="326.981" transform="matrix(0.8471 -0.5314 0.5314 0.8471 25.1981 744.7875)" style="fill:#FFFFFF;" width="132.191" height="3.242"/>
			
				<rect x="1229.381" y="308.661" transform="matrix(0.846 -0.5331 0.5331 0.846 34.0422 738.4418)" style="fill:#FFFFFF;" width="132.186" height="3.246"/>
			
				<rect x="1409.849" y="240.875" transform="matrix(0.8468 -0.5319 0.5319 0.8468 -4.655 814.4243)" style="fill:#FFFFFF;" width="3.242" height="348.837"/>
			
				<rect x="1386.339" y="255.645" transform="matrix(0.8468 -0.5319 0.5319 0.8468 -16.107 804.2028)" style="fill:#FFFFFF;" width="3.239" height="348.833"/>
			
				<rect x="1362.828" y="270.408" transform="matrix(0.8468 -0.5319 0.5319 0.8468 -27.5678 793.9423)" style="fill:#FFFFFF;" width="3.241" height="348.838"/>
			
				<rect x="1339.322" y="285.179" transform="matrix(0.8468 -0.5319 0.5319 0.8468 -39.0191 783.7314)" style="fill:#FFFFFF;" width="3.24" height="348.837"/>
		</g>
		<g>
			
				<rect x="1576.248" y="688.743" transform="matrix(0.8468 -0.5319 0.5319 0.8468 -211.6866 1010.8659)" style="fill:#FFFFFF;" width="145.312" height="368.308"/>
			
				<rect x="1582.809" y="698.479" transform="matrix(0.8468 -0.532 0.532 0.8468 -211.6856 1010.8847)" style="fill:#5E8BC8;" width="132.19" height="348.838"/>
			
				<rect x="1578.509" y="868.999" transform="matrix(0.8464 -0.5325 0.5325 0.8464 -212.0287 1010.9223)" style="fill:#FFFFFF;" width="136.217" height="8.112"/>
			
				<rect x="1663.795" y="1000.195" transform="matrix(0.8473 -0.5311 0.5311 0.8473 -267.9258 1071.7268)" style="fill:#FFFFFF;" width="132.183" height="3.24"/>
			
				<rect x="1652.282" y="981.874" transform="matrix(0.846 -0.5331 0.5331 0.846 -259.7597 1067.5127)" style="fill:#FFFFFF;" width="132.192" height="3.245"/>
			<polygon style="fill:#FFFFFF;" points="1650.051,998.961 1651.77,1001.703 1763.703,931.394 1761.973,928.644 			"/>
			<polygon style="fill:#FFFFFF;" points="1638.539,980.644 1640.258,983.391 1752.188,913.078 1750.473,910.332 			"/>
			
				<rect x="1617.765" y="926.919" transform="matrix(0.8468 -0.5319 0.5319 0.8468 -235.931 1037.9688)" style="fill:#FFFFFF;" width="132.185" height="3.242"/>
			
				<rect x="1606.252" y="908.599" transform="matrix(0.8466 -0.5323 0.5323 0.8466 -227.9014 1029.8073)" style="fill:#FFFFFF;" width="132.186" height="3.242"/>
			
				<rect x="1594.752" y="890.282" transform="matrix(0.8466 -0.5323 0.5323 0.8466 -219.9167 1020.8748)" style="fill:#FFFFFF;" width="132.183" height="3.242"/>
			
				<rect x="1571.737" y="853.645" transform="matrix(0.8455 -0.534 0.534 0.8455 -203.6431 1006.7482)" style="fill:#FFFFFF;" width="132.185" height="3.246"/>
			<polygon style="fill:#FFFFFF;" points="1569.488,870.727 1571.219,873.481 1683.141,803.16 1681.426,800.414 			"/>
			<polygon style="fill:#FFFFFF;" points="1557.992,852.414 1559.707,855.16 1671.637,784.836 1669.922,782.098 			"/>
			
				<rect x="1537.212" y="798.687" transform="matrix(0.8469 -0.5317 0.5317 0.8469 -180.1081 975.0087)" style="fill:#FFFFFF;" width="132.187" height="3.244"/>
			
				<rect x="1525.707" y="780.367" transform="matrix(0.8475 -0.5309 0.5309 0.8475 -172.3155 964.29)" style="fill:#FFFFFF;" width="132.182" height="3.246"/>
			<polygon style="fill:#FFFFFF;" points="1523.457,797.457 1525.18,800.203 1637.121,729.891 1635.383,727.144 			"/>
			
				<rect x="1502.686" y="743.729" transform="matrix(0.8469 -0.5317 0.5317 0.8469 -156.1671 948.2831)" style="fill:#FFFFFF;" width="132.187" height="3.249"/>
			<polygon style="fill:#FFFFFF;" points="1590.629,703.527 1776.18,998.918 1778.934,997.195 1593.371,701.805 			"/>
			
				<rect x="1659.643" y="690.71" transform="matrix(0.8468 -0.5319 0.5319 0.8468 -205.6614 1016.2576)" style="fill:#FFFFFF;" width="3.24" height="348.842"/>
			
				<rect x="1636.139" y="705.482" transform="matrix(0.8468 -0.5319 0.5319 0.8468 -217.1209 1005.9781)" style="fill:#FFFFFF;" width="3.249" height="348.834"/>
			
				<rect x="1612.623" y="720.248" transform="matrix(0.8468 -0.5319 0.5319 0.8468 -228.5811 995.6853)" style="fill:#FFFFFF;" width="3.25" height="348.837"/>
		</g>
	</g>
	<g>
		<path style="fill:none;stroke:#FFFFFF;stroke-width:12.2602;stroke-linecap:round;stroke-miterlimit:10;" d="M1313.078,868.156
			c-23.926-9.004-44.746-24.438-59.605-45.996c-14.863-21.574-21.871-46.52-21.762-72.098"/>
		<path style="fill:none;stroke:#FFFFFF;stroke-width:12.2602;stroke-linecap:round;stroke-miterlimit:10;" d="M1328.809,839.043
			c-18.922-7.121-35.363-19.305-47.109-36.348c-11.742-17.039-17.27-36.746-17.184-56.957"/>
		<path style="fill:none;stroke:#FFFFFF;stroke-width:12.2602;stroke-linecap:round;stroke-miterlimit:10;" d="M1340.477,809.211
			c-12.91-4.863-24.16-13.195-32.18-24.832c-8.027-11.648-11.809-25.117-11.754-38.926"/>
	</g>
</g>
<g>
	<path style="fill:none;stroke:#FFFFFF;stroke-width:12.2602;stroke-linecap:round;stroke-miterlimit:10;" d="M1062.129,793.035
		c-1.406-25.527-9.875-50.02-25.984-70.672c-16.113-20.652-37.801-34.82-62.227-42.398"/>
	<path style="fill:none;stroke:#FFFFFF;stroke-width:12.2602;stroke-linecap:round;stroke-miterlimit:10;" d="M1029.641,799.297
		c-1.113-20.188-7.801-39.527-20.535-55.848c-12.727-16.32-29.867-27.504-49.156-33.492"/>
	<path style="fill:none;stroke:#FFFFFF;stroke-width:12.2602;stroke-linecap:round;stroke-miterlimit:10;" d="M997.68,801.469
		c-0.766-13.777-5.336-27.008-14.031-38.148c-8.699-11.156-20.414-18.801-33.598-22.898"/>
</g>
</svg>
